<?xml version="1.0" encoding="iso-8859-1"?>
<!-- Uploaded to: SVG Repo, www.svgrepo.com, Generator: SVG Repo Mixer Tools -->
<svg fill="#000000" height="840px" width="840px" version="1.1" id="Layer_1" xmlns="http://www.w3.org/2000/svg" xmlns:xlink="http://www.w3.org/1999/xlink" 
	 viewBox="-20 -20 552.557 552.557" xml:space="preserve">
<g>
	<g>
		<path d="M200.331,416.157c-2-0.4-4,1.2-4.4,3.6c-1.6,12-7.6,23.6-17.2,33.6c-1.6,1.6-1.6,4,0,5.6c0.8,0.4,1.6,0.8,2.8,0.8
			s2-0.4,2.8-1.2c10.8-11.2,17.6-24.4,19.6-38C204.331,418.557,202.731,416.557,200.331,416.157z"/>
	</g>
</g>
<g>
	<g>
		<path d="M202.731,401.757c-2-8-6-14.4-11.6-19.2c-1.6-1.2-4.4-1.2-5.6,0.8c-1.2,1.6-1.2,4,0.8,5.2c4,3.6,7.2,8.8,8.8,14.8
			c0.4,2,2,3.2,4,3.2c0.4,0,0.8,0,0.8,0C201.931,406.157,203.531,403.757,202.731,401.757z"/>
	</g>
</g>
<g>
	<g>
		<path d="M72.731,452.557c-6-6-10.8-14.4-14.8-24.4c-1.6-4-2.8-8-3.6-12c-0.4-2-2.4-3.6-4.8-3.2c-2,0.4-3.6,2.4-3.2,4.8
			c0.8,4.4,2.4,8.8,4,13.2c4,10.8,9.6,20,16.4,27.2c0.8,0.8,2,1.2,2.8,1.2s2-0.4,2.8-1.2
			C73.931,456.557,73.931,454.157,72.731,452.557z"/>
	</g>
</g>
<g>
	<g>
		<path d="M483.931,360.557c-10.8-18.8-27.6-31.2-46.8-34.4c-2.8-0.4-5.6-0.8-8.8-0.8c-15.2,0-28,6.4-39.6,12
			c-4.8,2.4-9.6,4.8-14,6.4c-3.6-24-25.6-134.4-113.6-192.4c19.2-44,11.2-114.8-30-150.4c-0.8-0.8-2-1.2-2.8-0.8
			c-1.2,0-2,0.8-2.8,1.6l-13.2,16.8c-1.2,1.6-1.2,4,0.4,5.6c24.8,22,39.2,49.6,40.8,80.4c2,31.2-9.2,63.6-29.6,86
			c-3.2,3.2-6,6.8-9.2,10c-30.8,33.2-68.8,74.8-78.4,141.2c-4-1.6-8.4-3.6-12.8-6c-11.2-5.6-24.4-12-39.6-12c-2.8,0-5.6,0.4-8.8,0.8
			c-18.8,2.8-36,15.2-46.8,34c-13.6,24-15.2,54-4.4,82.4c20,51.6,60.4,62.4,73.6,66c6.8,2,17.6,4.4,30.4,4.4
			c23.6,0,46-8.4,66.4-24.8c24-19.2,37.6-46,37.6-73.6c0-21.6-8.4-40.8-23.6-52.8s-32-13.2-47.2-14.4c-6.4-0.4-12-0.8-17.6-2
			c9.6-64.4,45.2-103.2,76.8-137.6c14-15.6,27.6-30,36.4-44.8c0.4-0.8,0.8-1.6,1.6-2.8c85.6,57.2,106,166.4,109.2,187.2
			c-4.8,0.8-10.4,1.2-16.4,1.6c-15.2,1.2-32,2-47.2,14.4c-14.8,12-23.6,31.2-23.6,52.8c0,27.6,13.6,54,37.6,73.2
			c20.4,16.8,42.8,24.8,66.4,24.8c12.8,0,23.6-2,30.4-4c13.2-3.6,53.6-14,73.6-65.6
			C499.531,414.557,497.931,384.557,483.931,360.557z M160.731,354.957c14.8,0.4,30,1.2,43.2,12c13.2,10.4,20.4,27.6,20.4,46.8
			c0,25.2-12.4,49.6-34.4,67.2c-18.8,15.2-39.6,23.2-61.2,23.2c-11.6,0-21.2-2-28.4-4c-12.4-3.2-49.6-13.2-68-61.2
			c-10.8-26.8-9.2-54.4,3.2-76c9.6-16.4,24.4-27.6,41.2-30c2.4-0.4,4.8-0.4,7.2-0.4c13.2,0,24.8,5.6,36,11.2
			c6.8,3.2,13.2,6.4,19.6,8.4C145.931,353.757,153.131,354.557,160.731,354.957z M261.531,103.757c-2-31.6-16-60.4-40.8-83.6
			l8.4-10.4c30.4,28.8,40,79.2,31.6,118C261.931,119.757,261.931,111.757,261.531,103.757z M480.731,439.757c-18.4,48-56,58-68,61.2
			c-7.2,2-16.8,3.6-28.4,3.6c-21.6,0-42.4-7.6-61.2-22.8c-22-17.6-34.4-42-34.4-66.8c0-19.2,7.6-36,20.4-46.8
			c13.2-10.4,28-11.6,42.8-12.4c7.6-0.4,14.8-1.2,21.2-2.8s12.8-4.8,19.6-8.4c11.2-5.6,22.4-11.2,36-11.2c2.4,0,4.8,0,7.2,0.4
			c16.4,2.4,31.6,13.6,41.2,30C489.531,386.157,491.131,413.357,480.731,439.757z"/>
	</g>
</g>
<g>
	<g>
		<path d="M365.931,474.157c-8.4-2.8-17.2-7.6-25.2-14c-3.2-2.8-6.4-5.6-8.8-8.4c-1.6-1.6-4-2-5.6-0.4c-1.6,1.6-1.6,4-0.4,5.6
			c2.8,3.2,6.4,6.4,10,9.2c9.2,7.2,18.4,12.4,28,15.6c0.4,0,0.8,0,1.2,0c1.6,0,3.2-1.2,4-2.8
			C369.131,477.357,367.931,474.957,365.931,474.157z"/>
	</g>
</g>
<g>
	<g>
		<path d="M452.331,364.157c-5.6-5.2-12.4-9.2-19.6-10.4c-2-0.4-4.4,1.2-4.4,3.2c-0.4,2,1.2,4.4,3.2,4.4c5.2,0.8,10.4,3.6,15.2,8.4
			c0.8,0.8,2,1.2,2.8,1.2c1.2,0,2-0.4,2.8-1.2C453.931,368.157,453.931,365.757,452.331,364.157z"/>
	</g>
</g>
<g>
	<g>
		<path d="M463.531,380.557c-1.6-2-3.6-2.8-6-2c-2,0.8-3.2,3.2-2,5.2c4.8,11.2,5.2,24,2,37.6c-0.4,2,0.8,4.4,2.8,4.8
			c0.4,0,0.8,0,1.2,0c1.6,0,3.6-1.2,4-2.8C469.531,408.157,468.731,393.357,463.531,380.557z"/>
	</g>
</g>
</svg>