<?xml version="1.0" encoding="UTF-8" standalone="no"?>
<svg
   class="svg-icon"
   style="overflow:hidden;fill:currentColor"
   viewBox="0 0 536.33508 535.70581"
   version="1.1"
   id="svg27"
   sodipodi:docname="clear-cache.svg"
   inkscape:version="1.1.1 (3bf5ae0d25, 2021-09-20)"
   width="536.33508"
   height="535.70581"
   xmlns:inkscape="http://www.inkscape.org/namespaces/inkscape"
   xmlns:sodipodi="http://sodipodi.sourceforge.net/DTD/sodipodi-0.dtd"
   xmlns="http://www.w3.org/2000/svg"
   xmlns:svg="http://www.w3.org/2000/svg">
  <defs
     id="defs31" />
  <sodipodi:namedview
     id="namedview29"
     pagecolor="#ffffff"
     bordercolor="#666666"
     borderopacity="1.0"
     inkscape:pageshadow="2"
     inkscape:pageopacity="0.0"
     inkscape:pagecheckerboard="0"
     showgrid="false"
     inkscape:zoom="0.76464844"
     inkscape:cx="264.82759"
     inkscape:cy="271.36654"
     inkscape:window-width="1920"
     inkscape:window-height="1001"
     inkscape:window-x="-9"
     inkscape:window-y="-9"
     inkscape:window-maximized="1"
     inkscape:current-layer="svg27"
     fit-margin-left="5"
     fit-margin-top="5"
     fit-margin-right="5"
     fit-margin-bottom="5" />
  <path
     d="M 268.17081,267.85292"
     id="path23" />
  <path
     d="m 372.40596,530.70584 c -1.5606,0 -3.16454,-0.0867 -4.81185,-0.23843 C 327.65429,526.66706 288.05403,517.4624 249.90601,503.11354 178.18337,476.10647 118.89499,434.51934 73.69535,379.50815 65.2999,369.30644 63.52977,357.42853 68.7101,346.0925 c 4.9997,-10.95311 15.21586,-17.32556 28.01857,-17.50619 32.48362,-0.4335 65.4152,-6.87098 97.8916,-19.15349 32.25964,-12.19581 55.40134,-27.45502 72.83527,-48.03906 3.73532,-4.40725 7.09495,-9.37083 10.67133,-14.62341 1.74845,-2.5721 3.51858,-5.18033 5.36818,-7.7741 l 5.64273,-7.95474 52.66306,29.6731 -6.7626,9.77543 c -1.95075,2.82498 -3.82926,5.64273 -5.69331,8.43881 -4.11825,6.17015 -8.37378,12.54261 -13.12783,18.56104 -15.64936,19.78929 -35.92995,36.45738 -61.99055,50.95074 -27.57062,15.33146 -58.30579,26.40739 -93.49157,33.6613 9.19021,7.40563 17.75907,14.00928 26.11117,20.12886 19.24019,-4.3639 34.7306,-12.03686 46.98421,-23.38734 l 24.14597,-22.36139 -6.13403,32.3319 c -1.80625,9.52978 -14.10321,25.83662 -24.16764,37.90237 6.71925,3.21513 13.57578,6.58199 20.17221,10.46181 8.58331,5.04306 16.60307,4.88411 29.18902,-0.56355 22.00015,-9.5081 40.74903,-24.26879 56.17442,-37.46165 1.86405,-1.59672 3.70643,-3.22235 5.6933,-4.98525 l 29.60809,-26.04615 -8.51828,33.8058 c -2.83943,11.28546 -14.12489,31.71778 -33.58905,60.83455 0.94647,0.19507 1.89295,0.38292 2.83942,0.55632 5.54158,1.0115 11.10484,1.9074 16.66809,2.80331 4.97803,0.80197 9.95606,1.61117 14.91241,2.49262 20.81524,-31.19757 38.55263,-65.184 54.50544,-104.2496 4.06045,-9.93438 7.81024,-20.31671 11.44441,-30.34502 1.69787,-4.70348 3.40298,-9.40696 5.1442,-14.09599 l 5.39708,-14.81848 56.88247,19.62311 -5.57048,16.35019 c -1.48113,4.38558 -2.9189,8.65556 -4.43615,12.88941 -20.79357,57.77114 -45.08404,106.84338 -74.28751,150.02001 -1.3294,1.9652 -2.73827,3.87983 -4.14715,5.78723 -1.32218,1.77012 -2.6299,3.54025 -3.85815,5.3754 -6.84931,10.31008 -16.77647,15.54821 -29.49249,15.55544 z M 295.62583,259.57306 c -3.59083,5.28871 -7.31893,10.73636 -11.6178,15.81554 -19.63033,23.18504 -46.36285,40.95133 -81.7148,54.31759 -34.83897,13.17118 -70.25595,20.08551 -105.26111,20.55514 -5.67163,0.0795 -7.52845,2.49263 -8.60498,4.83353 -1.24993,2.73828 -1.87128,5.9245 2.01578,10.64966 43.36449,52.77866 98.02165,91.07119 167.09993,117.08843 36.349,13.67694 74.06353,22.44087 112.10317,26.0606 0.93925,0.0939 1.86405,0.1445 2.75995,0.1445 5.42598,-0.007 8.62666,-1.65453 11.44441,-5.89561 1.43055,-2.14583 2.96225,-4.21218 4.49395,-6.27853 1.22825,-1.65452 2.4565,-3.31628 3.6125,-5.02138 28.1703,-41.6666 51.66603,-89.16379 71.83823,-145.20815 0.99705,-2.78886 1.95798,-5.59216 2.93336,-8.45326 l -16.36464,-5.6355 c -1.07653,2.9478 -2.14583,5.8956 -3.2079,8.85063 -3.70642,10.23783 -7.53567,20.82246 -11.7623,31.16867 -16.8415,41.23311 -35.66264,77.08358 -57.52549,109.58166 -1.43056,2.13137 -5.78001,8.5833 -14.81128,8.5833 -1.13432,0 -2.3698,-0.10837 -3.72087,-0.35402 -5.59938,-1.03318 -11.24933,-1.94353 -16.89206,-2.85388 -5.70052,-0.91758 -11.40828,-1.84238 -17.08713,-2.87555 -4.45783,-0.8092 -8.87231,-1.8785 -13.35905,-2.9767 -1.93631,-0.46963 -3.87984,-0.95371 -5.8667,-1.40888 l -15.51931,-3.59083 9.05293,-13.11338 c 6.069,-8.80728 11.21321,-16.50914 15.55543,-23.2573 -9.09629,6.02566 -18.94396,11.62504 -29.59363,16.22737 -9.37083,4.05322 -17.36891,5.93173 -25.17913,5.93173 v 0 c -8.22928,0 -16.16234,-2.21808 -23.59687,-6.58198 -6.71203,-3.94486 -13.79976,-7.33338 -21.30654,-10.91699 -3.3813,-1.6184 -6.77705,-3.2368 -10.16558,-4.92745 l -12.73768,-6.34356 9.49365,-10.59185 c 1.05485,-1.17768 2.07358,-2.32646 3.05618,-3.45356 -4.50118,1.46668 -9.19743,2.75273 -14.10321,3.85816 -5.33928,1.2138 -12.06576,-0.12283 -16.40799,-3.29461 -9.34915,-6.82763 -18.93674,-14.23326 -29.29739,-22.62149 -3.77146,-3.05618 -7.15998,-6.24963 -10.74359,-9.64538 -1.55337,-1.46668 -3.15732,-2.9767 -4.84076,-4.52285 l -15.93113,-14.62341 22.766,-4.30611 c 0.9826,-0.18785 1.59672,-0.30345 2.21085,-0.39737 40.4239,-6.54586 74.75712,-17.87467 104.82759,-34.5861 23.51739,-13.08449 41.68106,-27.94632 55.52417,-45.45974 3.9593,-4.9997 7.57903,-10.36788 11.36493,-16.03951 z m 202.74089,53.98524 -205.32744,-91.33852 4.24109,-9.83323 c 5.96063,-13.84311 15.51207,-24.71674 28.39427,-32.31745 21.00309,-12.39811 43.7763,-13.79253 66.07267,-4.09658 23.68357,10.31009 49.04333,21.44382 74.01296,33.00383 33.46622,15.49041 49.63579,50.77011 39.31848,85.79694 -0.52742,1.80625 -1.1849,3.59082 -1.91462,5.5199 z M 322.45229,211.57735 485.42672,284.08028 c 4.76129,-23.20672 -6.39413,-45.08403 -28.76997,-55.43747 -24.77454,-11.46608 -49.99704,-22.54201 -73.565,-32.80152 -15.93114,-6.92878 -31.36375,-5.97508 -46.40621,2.89 -5.78723,3.41743 -10.49793,7.66573 -14.23325,12.84606 z m -199.18616,86.03536 -1.69066,-0.0289 C 88.76672,296.60121 62.62665,269.39184 63.3058,236.9299 c 0.65025,-31.60218 27.75124,-58.29857 59.18002,-58.29857 l 1.06931,0.007 c 15.68547,0.29623 31.01692,7.08051 42.06398,18.61884 11.01812,11.50943 16.88483,26.36404 16.50912,41.84723 -0.79475,32.26688 -27.20214,58.50809 -58.86211,58.50809 z m -0.13728,-97.29914 c -20.5696,0 -37.74344,16.97876 -38.16249,37.0715 -0.42627,20.62017 16.28516,37.9096 37.25214,38.53818 l 1.04763,0.0145 c 19.65923,0 36.69579,-17.10882 37.18709,-37.3605 0.23842,-9.66706 -3.48968,-19.01622 -10.49071,-26.32792 -7.08051,-7.39841 -16.86316,-11.74786 -26.81922,-11.93571 z m 346.51125,4.9997 -67.22869,-29.95487 c -2.23974,-0.99705 -3.56915,-2.40593 -4.20495,-3.08508 l -5.17311,-5.4621 3.35241,-8.35211 c 0.57077,-1.1849 1.14877,-2.36257 1.75567,-3.51858 L 470.31202,19.63064 C 475.55014,9.79018 483.01357,5 493.12858,5 c 1.74846,0 3.6414,0.1445 5.68608,0.44795 10.96033,1.59673 19.92656,6.5025 26.64582,14.59451 5.96062,7.15276 7.42008,15.59879 4.2194,24.41329 -13.06281,35.93718 -26.0606,71.90326 -39.06561,107.86211 l -14.60173,40.3661 c -0.30345,0.84533 -0.6936,1.66898 -1.3005,2.76718 z m -49.40459,-45.74151 38.49483,17.15939 11.50942,-31.7828 c 13.00501,-35.9733 26.01724,-71.9466 39.07283,-107.89823 0.59245,-1.6184 0.44795,-2.00855 -0.49853,-3.1501 -3.29459,-3.9593 -7.4562,-6.1846 -13.11338,-7.00825 -0.93203,-0.13728 -1.77735,-0.21675 -2.55765,-0.21675 -1.55337,0 -2.01577,0 -3.69197,3.1501 z M 44.88926,161.48639 C 23.26482,161.48639 5,143.16378 5,121.47431 5,99.49584 22.93969,81.60673 44.99041,81.60673 c 10.83751,0.0289 20.88026,4.24831 28.40872,11.87791 7.51401,7.60793 11.59613,17.67236 11.49498,28.32925 -0.19507,21.70391 -18.01916,39.50633 -39.72308,39.6725 z m 0.1734,-58.20464 c -10.16558,0 -18.38041,8.15703 -18.38041,18.19256 0,9.94161 8.33765,18.33706 18.21423,18.33706 v 10.83751 l 0.12283,-10.83751 c 9.94883,-0.0722 18.12031,-8.2365 18.21424,-18.19979 0.0433,-4.84797 -1.81348,-9.42863 -5.24536,-12.90385 -3.45355,-3.48246 -8.04143,-5.41153 -12.92553,-5.42598 z m 87.36475,58.19742 c -16.59582,0 -30.11381,-13.57579 -30.12103,-30.26555 0,-16.64641 13.52522,-30.18607 30.14995,-30.18607 8.3521,0.0578 15.98894,3.31627 21.71835,9.1902 5.67163,5.80891 8.72059,13.40961 8.58332,21.40769 -0.28178,16.31407 -13.76364,29.702 -30.05603,29.85373 z m 0.0939,-38.77661 c -4.81908,0 -8.53996,3.73533 -8.53996,8.50383 0,4.66013 3.8726,8.59776 8.44603,8.59776 v 10.83751 l 0.0722,-10.83751 c 4.50117,-0.0433 8.51105,-4.03155 8.5833,-8.54718 0.0361,-2.16751 -0.82364,-4.26276 -2.42038,-5.90283 -1.65451,-1.69065 -3.83646,-2.63713 -6.14125,-2.65158 z"
     id="path25" />
</svg>
