<?xml version="1.0" encoding="UTF-8" standalone="no"?>
<!-- Generator: Adobe Illustrator 16.0.0, SVG Export Plug-In . SVG Version: 6.00 Build 0)  -->

<svg
   version="1.1"
   id="Capa_1"
   x="0px"
   y="0px"
   width="640"
   height="640"
   viewBox="0 0 640 640"
   xml:space="preserve"
   sodipodi:docname="list-symbol-of-three-items-with-dots_icon-icons.com_72994-modified.svg"
   inkscape:version="1.1.1 (3bf5ae0d25, 2021-09-20)"
   xmlns:inkscape="http://www.inkscape.org/namespaces/inkscape"
   xmlns:sodipodi="http://sodipodi.sourceforge.net/DTD/sodipodi-0.dtd"
   xmlns="http://www.w3.org/2000/svg"
   xmlns:svg="http://www.w3.org/2000/svg"><defs
   id="defs1551" /><sodipodi:namedview
   id="namedview1549"
   pagecolor="#ffffff"
   bordercolor="#666666"
   borderopacity="1.0"
   inkscape:pageshadow="2"
   inkscape:pageopacity="0.0"
   inkscape:pagecheckerboard="0"
   showgrid="false"
   inkscape:zoom="0.59640523"
   inkscape:cx="898.71781"
   inkscape:cy="306.83836"
   inkscape:window-width="1597"
   inkscape:window-height="1030"
   inkscape:window-x="224"
   inkscape:window-y="0"
   inkscape:window-maximized="0"
   inkscape:current-layer="Capa_1" />
<g
   id="g1516"
   transform="translate(13.984252,13.983047)">
	<g
   id="_x33__32_">
		<g
   id="g1513">
			<path
   d="M 59.226,88.839 C 26.513,88.839 0,115.352 0,148.064 c 0,32.712 26.513,59.226 59.226,59.226 32.713,0 59.226,-26.514 59.226,-59.226 0,-32.712 -26.514,-59.225 -59.226,-59.225 z m 0,157.935 C 26.513,246.774 0,273.288 0,306 c 0,32.713 26.513,59.226 59.226,59.226 32.713,0 59.226,-26.513 59.226,-59.226 0,-32.712 -26.514,-59.226 -59.226,-59.226 z m 0,157.936 C 26.513,404.71 0,431.223 0,463.936 c 0,32.712 26.513,59.226 59.226,59.226 32.713,0 59.226,-26.514 59.226,-59.226 0,-32.713 -26.514,-59.226 -59.226,-59.226 z M 197.419,187.548 h 375.096 c 21.815,0 39.484,-17.669 39.484,-39.484 0,-21.815 -17.669,-39.484 -39.484,-39.484 H 197.419 c -21.815,0 -39.484,17.669 -39.484,39.484 0,21.815 17.669,39.484 39.484,39.484 z m 375.097,78.968 H 197.419 c -21.815,0 -39.484,17.669 -39.484,39.484 0,21.814 17.669,39.484 39.484,39.484 h 375.096 c 21.815,0 39.484,-17.67 39.484,-39.484 10e-4,-21.815 -17.668,-39.484 -39.483,-39.484 z m 0,157.935 H 197.419 c -21.815,0 -39.484,17.67 -39.484,39.484 0,21.814 17.669,39.483 39.484,39.483 h 375.096 c 21.815,0 39.484,-17.669 39.484,-39.483 0,-21.814 -17.668,-39.484 -39.483,-39.484 z"
   id="path1511" />
		</g>
	</g>
</g>
<g
   id="g1518">
</g>
<g
   id="g1520">
</g>
<g
   id="g1522">
</g>
<g
   id="g1524">
</g>
<g
   id="g1526">
</g>
<g
   id="g1528">
</g>
<g
   id="g1530">
</g>
<g
   id="g1532">
</g>
<g
   id="g1534">
</g>
<g
   id="g1536">
</g>
<g
   id="g1538">
</g>
<g
   id="g1540">
</g>
<g
   id="g1542">
</g>
<g
   id="g1544">
</g>
<g
   id="g1546">
</g>
</svg>
