<svg class="svg-icon" style="width: 1em; height: 1em;vertical-align: middle;fill: currentColor;overflow: hidden;" viewBox="0 0 1024 1024" version="1.1" xmlns="http://www.w3.org/2000/svg"><path d="M515.244027 7.225005C238.251775 7.225005 13.69861 231.770945 13.69861 508.770423c0 276.963353 224.545939 501.502067 501.545417 501.502067 276.992253 0 501.530967-224.538714 501.530967-501.502067C1016.774995 231.770945 792.23628 7.225005 515.244027 7.225005zM515.244027 985.815847c-263.481493 0-477.074324-213.592831-477.074324-477.045424 0-263.481493 213.592831-477.074324 477.074324-477.074324 263.488718 0 477.074324 213.592831 477.074324 477.074324C992.325577 772.230241 778.732745 985.815847 515.244027 985.815847z"  /><path d="M515.236802 508.748748"  /><path d="M619.471954 771.601665c-1.560601 0-3.164552-0.0867-4.811854-0.238425-39.939829-3.800353-79.540083-13.00501-117.688111-27.35387-71.722628-27.00707-131.011021-68.5942-176.210654-123.605391-8.395456-10.201707-10.165582-22.079616-4.985254-33.415649 4.999704-10.953108 15.215861-17.325563 28.018571-17.506188 32.483624-0.4335 65.415198-6.87098 97.891597-19.153489 32.259649-12.195809 55.401341-27.45502 72.835278-48.03906 3.735328-4.407253 7.094955-9.370832 10.671333-14.623411 1.748451-2.572102 3.518578-5.180329 5.368179-7.774106l5.642729-7.954731 52.663064 29.673097-6.762605 9.775432c-1.950751 2.824977-3.829253 5.642729-5.693304 8.438806-4.118253 6.170155-8.373781 12.542609-13.127835 18.561039-15.649361 19.789289-35.929951 36.457377-61.990545 50.950737-27.57062 15.331461-58.305793 26.407394-93.491568 33.6613 9.190207 7.40563 17.759063 14.009285 26.111169 20.128865 19.240189-4.363903 34.7306-12.036859 46.984209-23.387342l24.145968-22.361391-6.134029 32.331899c-1.806251 9.529782-14.10321 25.836619-24.167643 37.902378 6.719255 3.215127 13.575785 6.58198 20.172215 10.461808 8.583306 5.043054 16.603062 4.884104 29.189021-0.56355 22.000141-9.508107 40.74903-24.268793 56.174416-37.461652 1.864051-1.596726 3.706428-3.222352 5.693304-4.985254l29.608072-26.046144-8.518281 33.8058c-2.839427 11.285458-14.124885 31.717773-33.58905 60.834545 0.946476 0.195075 1.892951 0.382925 2.839427 0.556325 5.541579 1.011501 11.104833 1.907401 16.668087 2.803302 4.978029 0.801976 9.956057 1.611176 14.912411 2.492627 20.81524-31.197573 38.552628-65.183998 54.50544-104.249601 4.060453-9.934382 7.810231-20.316715 11.444408-30.345022 1.697876-4.703478 3.402977-9.406957 5.144204-14.095985l5.397079-14.818486 56.882467 19.623114-5.570479 16.350187c-1.481126 4.385578-2.918902 8.655556-4.436153 12.889409-20.793565 57.771142-45.084033 106.843378-74.287504 150.02001-1.329401 1.965201-2.738277 3.879828-4.147153 5.787229-1.322176 1.770126-2.629902 3.540253-3.858153 5.375404C642.11512 766.356311 632.187963 771.59444 619.471954 771.601665zM542.691822 500.468892c-3.590828 5.288704-7.31893 10.736358-11.617809 15.815537-19.630339 23.185042-46.362859 40.95133-81.71481 54.31759-34.838976 13.171185-70.255951 20.085515-105.261102 20.55514-5.671629 0.079475-7.528456 2.492627-8.604981 4.833529-1.249926 2.738277-1.871276 5.924504 2.015776 10.649658 43.364482 52.778664 98.021647 91.071192 167.099922 117.088436 36.349002 13.676935 74.063529 22.440866 112.103182 26.060594 0.939251 0.093925 1.864051 0.1445 2.759952 0.1445 5.425979-0.007225 8.626656-1.654526 11.444408-5.895604 1.430551-2.145827 2.962252-4.212178 4.493953-6.27853 1.228251-1.654526 2.456502-3.316277 3.612503-5.021379 28.170296-41.666606 51.666013-89.16379 71.838228-145.208156 0.997051-2.788852 1.957976-5.592154 2.933352-8.453256l-16.364637-5.635504c-1.076526 2.947802-2.145827 5.895604-3.207902 8.850631-3.706428 10.237832-7.535681 20.822465-11.762309 31.168673-16.841487 41.233105-35.662626 77.083581-57.525492 109.581655-1.430551 2.131377-5.780004 8.583306-14.811261 8.583306-1.134326 0-2.369802-0.108375-3.720878-0.354025-5.599379-1.033176-11.249333-1.943526-16.892062-2.853877-5.700529-0.917576-11.408283-1.842376-17.087138-2.875552-4.457828-0.809201-8.872306-1.878501-13.359035-2.976702-1.936301-0.469625-3.879828-0.953701-5.866704-1.408876l-15.519311-3.590828 9.052932-13.113385c6.069004-8.807281 11.213208-16.509137 15.555436-23.257292-9.096282 6.025654-18.943964 11.625034-29.593622 16.227362-9.370832 4.053228-17.368913 5.931729-25.179143 5.931729l0 0c-8.229281 0-16.162337-2.218077-23.596867-6.58198-6.71203-3.944853-13.79976-7.33338-21.306541-10.916983-3.381302-1.618401-6.777055-3.236802-10.165582-4.927454l-12.737684-6.343555 9.493657-10.591858c1.054851-1.177676 2.073577-2.326452 3.056177-3.453553-4.501178 1.466676-9.197432 2.752727-14.10321 3.858153-5.339279 1.213801-12.065759-0.122825-16.407987-3.294602-9.349157-6.82763-18.936739-14.23326-29.297396-22.621492-3.771453-3.056177-7.15998-6.24963-10.743583-9.645382-1.553376-1.466676-3.157327-2.976702-4.840754-4.522853l-15.931137-14.623411 22.765992-4.306103c0.982601-0.18785 1.596726-0.30345 2.210852-0.397375 40.423905-6.545855 74.75713-17.874663 104.827602-34.5861 23.517392-13.084485 41.681056-27.94632 55.524166-45.459733 3.959303-4.999704 7.579031-10.367883 11.364933-16.039512L542.691822 500.468892zM745.432696 554.454131 540.105271 463.115614l4.241078-9.833232c5.960629-13.84311 15.512086-24.716743 28.394271-32.317449 21.00309-12.398109 43.776307-13.792535 66.072673-4.096578 23.683567 10.310083 49.043336 21.443816 74.012954 33.003824 33.466225 15.490411 49.635786 50.770112 39.318479 85.796938-0.527425 1.806251-1.184901 3.590828-1.914626 5.519904L745.432696 554.454131zM569.518267 452.473181l162.974444 72.502928c4.761278-23.206717-6.39413-45.084033-28.769971-55.437466-24.774543-11.466083-49.997037-22.542017-73.565004-32.801524-15.931137-6.92878-31.363748-5.975079-46.406209 2.890002C577.964298 443.044549 573.253595 447.292853 569.518267 452.473181zM370.332096 538.508544l-1.690651-0.0289c-32.808749-0.982601-58.948818-28.191971-58.269668-60.653919 0.65025-31.602173 27.751245-58.298568 59.180018-58.298568l1.069301 0.007225c15.685486 0.296225 31.016948 7.080505 42.063981 18.618839 11.018133 11.509433 16.884837 26.364044 16.509137 41.847231C428.399464 512.267325 401.992069 538.508544 370.332096 538.508544zM370.194821 441.209398c-20.56959 0-37.743428 16.978762-38.162478 37.071502-0.426275 20.620165 16.285162 37.909603 37.252127 38.538178l1.047626 0.01445c19.659239 0 36.695802-17.108813 37.187102-37.360502 0.238425-9.667057-3.489678-19.016214-10.490708-26.327919-7.080505-7.398405-16.863162-11.747859-26.81922-11.935709L370.194821 441.209398zM716.706075 446.209102l-67.228674-29.954872c-2.239752-0.997051-3.569153-2.405927-4.204953-3.085077l-5.173104-5.462104 3.352402-8.352106c0.570775-1.184901 1.148776-2.362577 1.755676-3.518578l72.170578-135.309899c5.238129-9.840457 12.701559-14.630636 22.816567-14.630636 1.748451 0 3.641403 0.1445 5.686079 0.44795 10.960333 1.596726 19.926565 6.502505 26.64582 14.594511 5.960629 7.152755 7.42008 15.598786 4.219403 24.413293-13.06281 35.937176-26.060594 71.903253-39.065604 107.862104l-14.601736 40.366105c-0.30345 0.845326-0.693601 1.668976-1.300501 2.767177L716.706075 446.209102zM667.301489 400.467593l38.494828 17.159388 11.509433-31.782798c13.00501-35.973301 26.017244-71.946603 39.072829-107.898229 0.59245-1.618401 0.44795-2.008551-0.498525-3.150102-3.294602-3.959303-7.456205-6.184605-13.113385-7.008255-0.932026-0.137275-1.777351-0.21675-2.557652-0.21675-1.553376 0-2.015776 0-3.691978 3.150102L667.301489 400.467593zM291.955239 402.38222c-21.624441 0-39.889254-18.322613-39.889254-40.012079 0-21.978466 17.939688-39.867579 39.990404-39.867579 10.837508 0.0289 20.880265 4.248303 28.408721 11.877909 7.514006 7.607931 11.596133 17.672363 11.494983 28.329246-0.195075 21.703916-18.019163 39.506329-39.723079 39.672504L291.955239 402.38222zM292.128639 344.177577c-10.165582 0-18.380413 8.157031-18.380413 18.192563 0 9.941607 8.337656 18.337063 18.214238 18.337063l0 10.837508 0.122825-10.837508c9.948832-0.07225 18.120313-8.236506 18.214238-18.199788 0.04335-4.847979-1.813476-9.428632-5.245354-12.903859C301.600621 346.121104 297.012743 344.192027 292.128639 344.177577zM379.493403 402.374995c-16.595837 0-30.113822-13.575785-30.121047-30.265547 0-16.646412 13.52521-30.186072 30.149947-30.186072 8.352106 0.0578 15.988937 3.316277 21.718366 9.190207 5.671629 5.808904 8.720581 13.40961 8.583306 21.407691-0.281775 16.314062-13.763635 29.701997-30.056022 29.853722L379.493403 402.374995zM379.587328 363.598391c-4.819079 0-8.539956 3.735328-8.539956 8.503831 0 4.660128 3.872603 8.597756 8.446031 8.597756l0 10.837508 0.07225-10.837508c4.501178-0.04335 8.511056-4.031553 8.583306-8.547181 0.036125-2.167502-0.823651-4.262753-2.420377-5.902829C384.074056 364.559317 381.892105 363.612841 379.587328 363.598391z"  /></svg>